# xmcd
#
# Track frame offsets:
#	187
#	15525
#	28457
#	40537
#	53485
#	68735
#	82920
#	96847
#	107927
#	122007
#	133292
#	146690
#	159537
#	172887
#	186705
#	201867
#	216652
#	228940
#	241147
#	255237
#
# Disc length: 3585 seconds
#
# Revision: 1
# Processed by: cddbd v1.5.2PL0 Copyright (c) Steve Scherf et al.
# Submitted via: audiograbber 1.83.01
#
DISCID=190dff14
DTITLE=Muddy Waters - The Best Of Muddy Waters
DYEAR=1986
DGENRE=Blues
TTITLE0=They Call Me Muddy Waters
TTITLE1=I Just Want To Make Love To You
TTITLE2=Long Distance Call
TTITLE3=Louisiana Blues
TTITLE4=Honey Bee
TTITLE5=Rollin' Stone
TTITLE6=I'm Ready
TTITLE7=Standing Here Trembling
TTITLE8=Screamin And Cryin
TTITLE9=Gone To Main Street
TTITLE10=Walking Blues
TTITLE11=Hoochie Coochie Man
TTITLE12=She Moves Me
TTITLE13=I Want You To Love Me
TTITLE14=Standing Around Crying
TTITLE15=Still A Fool
TTITLE16=I Can't Be Satisfied
TTITLE17=Howling Wolf
TTITLE18=You're Gonna Need Me
TTITLE19=Rollin' And Tumblin' (Part 1)
EXTD=
EXTT0=
EXTT1=
EXTT2=
EXTT3=
EXTT4=
EXTT5=
EXTT6=
EXTT7=
EXTT8=
EXTT9=
EXTT10=
EXTT11=
EXTT12=
EXTT13=
EXTT14=
EXTT15=
EXTT16=
EXTT17=
EXTT18=
EXTT19=
PLAYORDER=
